General
Unique ID                                : 325955830198406096614505569756018685062 (0xF538CF345BAC3B36F8429D2CF084B486)
Complete name                            : Gladiator.2000.Extended.Cut.UHD.BluRay.2160p.DTS-X.7.1.DV.HEVC.REMUX-FraMeSToR.mkv
Format                                   : Matroska
Format version                           : Version 4
File size                                : 69.4 GiB
Duration                                 : 2 h 50 min
Overall bit rate mode                    : Variable
Overall bit rate                         : 58.1 Mb/s
Movie name                               : Gladiator (2000) Extended Cut DV
Encoded date                             : UTC 2020-11-20 08:36:04
Writing application                      : mkvmerge v51.0.0 ('I Wish') 64-bit
Writing library                          : libebml v1.4.0 + libmatroska v1.6.2
IMDB                                     : tt0172495
TMDB                                     : movie/98

Video
ID                                       : 1
ID in the original source medium         : 4113 (0x1011)
Format                                   : HEVC
Format/Info                              : High Efficiency Video Coding
Format profile                           : Main 10@L5.1@High
HDR format                               : Dolby Vision, Version 1.0, dvhe.07.06, BL+EL+RPU, Blu-ray compatible / SMPTE ST 2086, HDR10 compatible
Codec ID                                 : V_MPEGH/ISO/HEVC
Duration                                 : 2 h 50 min
Bit rate                                 : 48.3 Mb/s
Width                                    : 3 840 pixels
Height                                   : 2 160 pixels
Display aspect ratio                     : 16:9
Frame rate mode                          : Constant
Frame rate                               : 23.976 (24000/1001) FPS
Color space                              : YUV
Chroma subsampling                       : 4:2:0 (Type 2)
Bit depth                                : 10 bits
Bits/(Pixel*Frame)                       : 0.243
Stream size                              : 57.7 GiB (83%)
Default                                  : Yes
Forced                                   : No
Color range                              : Limited
Color primaries                          : BT.2020
Transfer characteristics                 : PQ
Matrix coefficients                      : BT.2020 non-constant
Mastering display color primaries        : Display P3
Mastering display luminance              : min: 0.0050 cd/m2, max: 1000 cd/m2
Maximum Content Light Level              : 1000 cd/m2
Maximum Frame-Average Light Level        : 497 cd/m2
Original source medium                   : Blu-ray

Audio #1
ID                                       : 2
Format                                   : DTS XLL X
Format/Info                              : Digital Theater Systems
Commercial name                          : DTS-HD Master Audio
Codec ID                                 : A_DTS
Duration                                 : 2 h 50 min
Bit rate mode                            : Variable
Bit rate                                 : 7 493 kb/s
Channel(s)                               : 8 channels
Channel(s)_Original                      : Object Based
ChannelLayout_Original                   : Object Based
Sampling rate                            : 48.0 kHz
Frame rate                               : 93.748 FPS (512 SPF)
Bit depth                                : 24 bits
Stream size                              : 8.95 GiB (13%)
Title                                    : DTS:X 7.1
Language                                 : English
Default                                  : Yes
Forced                                   : No

Audio #2
ID                                       : 3
Format                                   : AC-3
Format/Info                              : Audio Coding 3
Commercial name                          : Dolby Digital
Codec ID                                 : A_AC3
Duration                                 : 2 h 50 min
Bit rate mode                            : Constant
Bit rate                                 : 224 kb/s
Channel(s)                               : 2 channels
Channel layout                           : L R
Sampling rate                            : 48.0 kHz
Frame rate                               : 31.250 FPS (1536 SPF)
Compression mode                         : Lossy
Stream size                              : 274 MiB (0%)
Title                                    : Commentary by director Ridley Scott, cinematographer John Mathieson and editor Pietro Scalia
Language                                 : English
Service kind                             : Complete Main
Default                                  : No
Forced                                   : No

Audio #3
ID                                       : 4
Format                                   : AC-3
Format/Info                              : Audio Coding 3
Commercial name                          : Dolby Digital
Codec ID                                 : A_AC3
Duration                                 : 2 h 50 min
Bit rate mode                            : Constant
Bit rate                                 : 224 kb/s
Channel(s)                               : 2 channels
Channel layout                           : L R
Sampling rate                            : 48.0 kHz
Frame rate                               : 31.250 FPS (1536 SPF)
Compression mode                         : Lossy
Stream size                              : 274 MiB (0%)
Title                                    : Commentary by director Ridley Scott and actor Russell Crowe
Language                                 : English
Service kind                             : Complete Main
Default                                  : No
Forced                                   : No

Text #1
ID                                       : 5
Format                                   : PGS
Codec ID                                 : S_HDMV/PGS
Codec ID/Info                            : Picture based subtitle format used on BDs/HD-DVDs
Duration                                 : 2 h 42 min
Bit rate                                 : 22.1 kb/s
Count of elements                        : 2718
Stream size                              : 25.7 MiB (0%)
Title                                    : English
Language                                 : English
Default                                  : No
Forced                                   : No

Text #2
ID                                       : 6
Format                                   : PGS
Codec ID                                 : S_HDMV/PGS
Codec ID/Info                            : Picture based subtitle format used on BDs/HD-DVDs
Duration                                 : 2 h 43 min
Bit rate                                 : 23.7 kb/s
Count of elements                        : 2911
Stream size                              : 27.8 MiB (0%)
Title                                    : English (SDH)
Language                                 : English
Default                                  : No
Forced                                   : No

Text #3
ID                                       : 7
Format                                   : PGS
Codec ID                                 : S_HDMV/PGS
Codec ID/Info                            : Picture based subtitle format used on BDs/HD-DVDs
Duration                                 : 2 h 49 min
Bit rate                                 : 18.5 kb/s
Count of elements                        : 2691
Stream size                              : 22.5 MiB (0%)
Title                                    : Chinese (Traditional)
Language                                 : Chinese
Default                                  : No
Forced                                   : No

Text #4
ID                                       : 8
Format                                   : PGS
Codec ID                                 : S_HDMV/PGS
Codec ID/Info                            : Picture based subtitle format used on BDs/HD-DVDs
Duration                                 : 2 h 49 min
Bit rate                                 : 20.5 kb/s
Count of elements                        : 2707
Stream size                              : 24.9 MiB (0%)
Title                                    : Czech
Language                                 : Czech
Default                                  : No
Forced                                   : No

Text #5
ID                                       : 9
Format                                   : PGS
Codec ID                                 : S_HDMV/PGS
Codec ID/Info                            : Picture based subtitle format used on BDs/HD-DVDs
Duration                                 : 2 h 49 min
Bit rate                                 : 21.1 kb/s
Count of elements                        : 2707
Stream size                              : 25.7 MiB (0%)
Title                                    : Danish
Language                                 : Danish
Default                                  : No
Forced                                   : No

Text #6
ID                                       : 10
Format                                   : PGS
Codec ID                                 : S_HDMV/PGS
Codec ID/Info                            : Picture based subtitle format used on BDs/HD-DVDs
Duration                                 : 2 h 49 min
Bit rate                                 : 19.7 kb/s
Count of elements                        : 2709
Stream size                              : 23.9 MiB (0%)
Title                                    : Dutch
Language                                 : Dutch
Default                                  : No
Forced                                   : No

Text #7
ID                                       : 11
Format                                   : PGS
Codec ID                                 : S_HDMV/PGS
Codec ID/Info                            : Picture based subtitle format used on BDs/HD-DVDs
Duration                                 : 2 h 49 min
Bit rate                                 : 20.8 kb/s
Count of elements                        : 2709
Stream size                              : 25.2 MiB (0%)
Title                                    : Finnish
Language                                 : Finnish
Default                                  : No
Forced                                   : No

Text #8
ID                                       : 12
Format                                   : PGS
Codec ID                                 : S_HDMV/PGS
Codec ID/Info                            : Picture based subtitle format used on BDs/HD-DVDs
Duration                                 : 2 h 44 min
Bit rate                                 : 22.0 kb/s
Count of elements                        : 2602
Stream size                              : 25.9 MiB (0%)
Title                                    : French (Canadian)
Language                                 : French
Default                                  : No
Forced                                   : No

Text #9
ID                                       : 13
Format                                   : PGS
Codec ID                                 : S_HDMV/PGS
Codec ID/Info                            : Picture based subtitle format used on BDs/HD-DVDs
Duration                                 : 2 h 49 min
Bit rate                                 : 22.2 kb/s
Count of elements                        : 2707
Stream size                              : 26.9 MiB (0%)
Title                                    : French (Parisian)
Language                                 : French
Default                                  : No
Forced                                   : No

Text #10
ID                                       : 14
Format                                   : PGS
Codec ID                                 : S_HDMV/PGS
Codec ID/Info                            : Picture based subtitle format used on BDs/HD-DVDs
Duration                                 : 2 h 49 min
Bit rate                                 : 24.0 kb/s
Count of elements                        : 2707
Stream size                              : 29.1 MiB (0%)
Title                                    : German
Language                                 : German
Default                                  : No
Forced                                   : No

Text #11
ID                                       : 15
Format                                   : PGS
Codec ID                                 : S_HDMV/PGS
Codec ID/Info                            : Picture based subtitle format used on BDs/HD-DVDs
Duration                                 : 2 h 49 min
Bit rate                                 : 23.7 kb/s
Count of elements                        : 2726
Stream size                              : 28.8 MiB (0%)
Title                                    : Greek
Language                                 : Greek
Default                                  : No
Forced                                   : No

Text #12
ID                                       : 16
Format                                   : PGS
Codec ID                                 : S_HDMV/PGS
Codec ID/Info                            : Picture based subtitle format used on BDs/HD-DVDs
Duration                                 : 2 h 49 min
Bit rate                                 : 20.6 kb/s
Count of elements                        : 2711
Stream size                              : 25.1 MiB (0%)
Title                                    : Italian
Language                                 : Italian
Default                                  : No
Forced                                   : No

Text #13
ID                                       : 17
Format                                   : PGS
Codec ID                                 : S_HDMV/PGS
Codec ID/Info                            : Picture based subtitle format used on BDs/HD-DVDs
Duration                                 : 2 h 43 min
Bit rate                                 : 15.3 kb/s
Count of elements                        : 2624
Stream size                              : 17.9 MiB (0%)
Title                                    : Japanese
Language                                 : Japanese
Default                                  : No
Forced                                   : No

Text #14
ID                                       : 18
Format                                   : PGS
Codec ID                                 : S_HDMV/PGS
Codec ID/Info                            : Picture based subtitle format used on BDs/HD-DVDs
Duration                                 : 2 h 44 min
Bit rate                                 : 13.8 kb/s
Count of elements                        : 2678
Stream size                              : 16.3 MiB (0%)
Title                                    : Korean
Language                                 : Korean
Default                                  : No
Forced                                   : No

Text #15
ID                                       : 19
Format                                   : PGS
Codec ID                                 : S_HDMV/PGS
Codec ID/Info                            : Picture based subtitle format used on BDs/HD-DVDs
Duration                                 : 2 h 49 min
Bit rate                                 : 20.5 kb/s
Count of elements                        : 2711
Stream size                              : 24.9 MiB (0%)
Title                                    : Norwegian
Language                                 : Norwegian
Default                                  : No
Forced                                   : No

Text #16
ID                                       : 20
Format                                   : PGS
Codec ID                                 : S_HDMV/PGS
Codec ID/Info                            : Picture based subtitle format used on BDs/HD-DVDs
Duration                                 : 2 h 49 min
Bit rate                                 : 21.6 kb/s
Count of elements                        : 2715
Stream size                              : 26.2 MiB (0%)
Title                                    : Polish
Language                                 : Polish
Default                                  : No
Forced                                   : No

Text #17
ID                                       : 21
Format                                   : PGS
Codec ID                                 : S_HDMV/PGS
Codec ID/Info                            : Picture based subtitle format used on BDs/HD-DVDs
Duration                                 : 2 h 49 min
Bit rate                                 : 20.4 kb/s
Count of elements                        : 2701
Stream size                              : 24.8 MiB (0%)
Title                                    : Portuguese (Brazilian)
Language                                 : Portuguese
Default                                  : No
Forced                                   : No

Text #18
ID                                       : 22
Format                                   : PGS
Codec ID                                 : S_HDMV/PGS
Codec ID/Info                            : Picture based subtitle format used on BDs/HD-DVDs
Duration                                 : 2 h 50 min
Bit rate                                 : 21.7 kb/s
Count of elements                        : 2709
Stream size                              : 26.4 MiB (0%)
Title                                    : Portuguese (Iberian)
Language                                 : Portuguese
Default                                  : No
Forced                                   : No

Text #19
ID                                       : 23
Format                                   : PGS
Codec ID                                 : S_HDMV/PGS
Codec ID/Info                            : Picture based subtitle format used on BDs/HD-DVDs
Duration                                 : 2 h 49 min
Bit rate                                 : 21.8 kb/s
Count of elements                        : 2709
Stream size                              : 26.5 MiB (0%)
Title                                    : Spanish (Castilian)
Language                                 : Spanish
Default                                  : No
Forced                                   : No

Text #20
ID                                       : 24
Format                                   : PGS
Codec ID                                 : S_HDMV/PGS
Codec ID/Info                            : Picture based subtitle format used on BDs/HD-DVDs
Duration                                 : 2 h 44 min
Bit rate                                 : 21.5 kb/s
Count of elements                        : 2608
Stream size                              : 25.4 MiB (0%)
Title                                    : Spanish (Latin American)
Language                                 : Spanish
Default                                  : No
Forced                                   : No

Text #21
ID                                       : 25
Format                                   : PGS
Codec ID                                 : S_HDMV/PGS
Codec ID/Info                            : Picture based subtitle format used on BDs/HD-DVDs
Duration                                 : 2 h 49 min
Bit rate                                 : 20.7 kb/s
Count of elements                        : 2705
Stream size                              : 25.1 MiB (0%)
Title                                    : Swedish
Language                                 : Swedish
Default                                  : No
Forced                                   : No

Text #22
ID                                       : 26
Format                                   : PGS
Codec ID                                 : S_HDMV/PGS
Codec ID/Info                            : Picture based subtitle format used on BDs/HD-DVDs
Duration                                 : 2 h 49 min
Bit rate                                 : 22.8 kb/s
Count of elements                        : 2709
Stream size                              : 27.7 MiB (0%)
Title                                    : Turkish
Language                                 : Turkish
Default                                  : No
Forced                                   : No

Text #23
ID                                       : 27
Format                                   : PGS
Codec ID                                 : S_HDMV/PGS
Codec ID/Info                            : Picture based subtitle format used on BDs/HD-DVDs
Duration                                 : 2 h 45 min
Bit rate                                 : 43.7 kb/s
Count of elements                        : 3641
Stream size                              : 51.8 MiB (0%)
Title                                    : English (Commentary #1)
Language                                 : English
Default                                  : No
Forced                                   : No

Text #24
ID                                       : 28
Format                                   : PGS
Codec ID                                 : S_HDMV/PGS
Codec ID/Info                            : Picture based subtitle format used on BDs/HD-DVDs
Duration                                 : 2 h 45 min
Bit rate                                 : 43.4 kb/s
Count of elements                        : 4005
Stream size                              : 51.4 MiB (0%)
Title                                    : French (Canadian) (Commentary #1)
Language                                 : French
Default                                  : No
Forced                                   : No

Text #25
ID                                       : 29
Format                                   : PGS
Codec ID                                 : S_HDMV/PGS
Codec ID/Info                            : Picture based subtitle format used on BDs/HD-DVDs
Duration                                 : 2 h 44 min
Bit rate                                 : 56.5 kb/s
Count of elements                        : 4943
Stream size                              : 66.3 MiB (0%)
Title                                    : French (Parisian) (Commentary #1)
Language                                 : French
Default                                  : No
Forced                                   : No

Text #26
ID                                       : 30
Format                                   : PGS
Codec ID                                 : S_HDMV/PGS
Codec ID/Info                            : Picture based subtitle format used on BDs/HD-DVDs
Duration                                 : 2 h 44 min
Bit rate                                 : 64.7 kb/s
Count of elements                        : 4939
Stream size                              : 76.0 MiB (0%)
Title                                    : German (Commentary #1)
Language                                 : German
Default                                  : No
Forced                                   : No

Text #27
ID                                       : 31
Format                                   : PGS
Codec ID                                 : S_HDMV/PGS
Codec ID/Info                            : Picture based subtitle format used on BDs/HD-DVDs
Duration                                 : 2 h 44 min
Bit rate                                 : 66.0 kb/s
Count of elements                        : 4947
Stream size                              : 77.4 MiB (0%)
Title                                    : Greek (Commentary #1)
Language                                 : Greek
Default                                  : No
Forced                                   : No

Text #28
ID                                       : 32
Format                                   : PGS
Codec ID                                 : S_HDMV/PGS
Codec ID/Info                            : Picture based subtitle format used on BDs/HD-DVDs
Duration                                 : 2 h 44 min
Bit rate                                 : 54.9 kb/s
Count of elements                        : 4943
Stream size                              : 64.5 MiB (0%)
Title                                    : Italian (Commentary #1)
Language                                 : Italian
Default                                  : No
Forced                                   : No

Text #29
ID                                       : 33
Format                                   : PGS
Codec ID                                 : S_HDMV/PGS
Codec ID/Info                            : Picture based subtitle format used on BDs/HD-DVDs
Duration                                 : 2 h 44 min
Bit rate                                 : 31.2 kb/s
Count of elements                        : 3147
Stream size                              : 36.6 MiB (0%)
Title                                    : Japanese (Commentary #1)
Language                                 : Japanese
Default                                  : No
Forced                                   : No

Text #30
ID                                       : 34
Format                                   : PGS
Codec ID                                 : S_HDMV/PGS
Codec ID/Info                            : Picture based subtitle format used on BDs/HD-DVDs
Duration                                 : 2 h 45 min
Bit rate                                 : 25.8 kb/s
Count of elements                        : 3639
Stream size                              : 30.6 MiB (0%)
Title                                    : Korean (Commentary #1)
Language                                 : Korean
Default                                  : No
Forced                                   : No

Text #31
ID                                       : 35
Format                                   : PGS
Codec ID                                 : S_HDMV/PGS
Codec ID/Info                            : Picture based subtitle format used on BDs/HD-DVDs
Duration                                 : 2 h 44 min
Bit rate                                 : 59.0 kb/s
Count of elements                        : 4939
Stream size                              : 69.2 MiB (0%)
Title                                    : Polish (Commentary #1)
Language                                 : Polish
Default                                  : No
Forced                                   : No

Text #32
ID                                       : 36
Format                                   : PGS
Codec ID                                 : S_HDMV/PGS
Codec ID/Info                            : Picture based subtitle format used on BDs/HD-DVDs
Duration                                 : 2 h 44 min
Bit rate                                 : 44.0 kb/s
Count of elements                        : 3841
Stream size                              : 51.6 MiB (0%)
Title                                    : Portuguese (Brazilian) (Commentary #1)
Language                                 : Portuguese
Default                                  : No
Forced                                   : No

Text #33
ID                                       : 37
Format                                   : PGS
Codec ID                                 : S_HDMV/PGS
Codec ID/Info                            : Picture based subtitle format used on BDs/HD-DVDs
Duration                                 : 2 h 44 min
Bit rate                                 : 67.9 kb/s
Count of elements                        : 4939
Stream size                              : 79.6 MiB (0%)
Title                                    : Russian (Commentary #1)
Language                                 : Russian
Default                                  : No
Forced                                   : No

Text #34
ID                                       : 38
Format                                   : PGS
Codec ID                                 : S_HDMV/PGS
Codec ID/Info                            : Picture based subtitle format used on BDs/HD-DVDs
Duration                                 : 2 h 44 min
Bit rate                                 : 60.2 kb/s
Count of elements                        : 4939
Stream size                              : 70.7 MiB (0%)
Title                                    : Spanish (Castilian) (Commentary #1)
Language                                 : Spanish
Default                                  : No
Forced                                   : No

Text #35
ID                                       : 39
Format                                   : PGS
Codec ID                                 : S_HDMV/PGS
Codec ID/Info                            : Picture based subtitle format used on BDs/HD-DVDs
Duration                                 : 2 h 45 min
Bit rate                                 : 44.2 kb/s
Count of elements                        : 4133
Stream size                              : 52.5 MiB (0%)
Title                                    : Spanish (Latin American) (Commentary #1)
Language                                 : Spanish
Default                                  : No
Forced                                   : No

Text #36
ID                                       : 40
Format                                   : PGS
Codec ID                                 : S_HDMV/PGS
Codec ID/Info                            : Picture based subtitle format used on BDs/HD-DVDs
Duration                                 : 2 h 46 min
Bit rate                                 : 72.9 kb/s
Count of elements                        : 6155
Stream size                              : 87.0 MiB (0%)
Title                                    : English (Commentary #2)
Language                                 : English
Default                                  : No
Forced                                   : No

Text #37
ID                                       : 41
Format                                   : PGS
Codec ID                                 : S_HDMV/PGS
Codec ID/Info                            : Picture based subtitle format used on BDs/HD-DVDs
Duration                                 : 2 h 46 min
Bit rate                                 : 61.5 kb/s
Count of elements                        : 5700
Stream size                              : 73.4 MiB (0%)
Title                                    : French (Canadian) (Commentary #2)
Language                                 : French
Default                                  : No
Forced                                   : No

Text #38
ID                                       : 42
Format                                   : PGS
Codec ID                                 : S_HDMV/PGS
Codec ID/Info                            : Picture based subtitle format used on BDs/HD-DVDs
Duration                                 : 2 h 50 min
Bit rate                                 : 60.5 kb/s
Count of elements                        : 5700
Stream size                              : 73.7 MiB (0%)
Title                                    : French (Parisian) (Commentary #2)
Language                                 : French
Default                                  : No
Forced                                   : No

Text #39
ID                                       : 43
Format                                   : PGS
Codec ID                                 : S_HDMV/PGS
Codec ID/Info                            : Picture based subtitle format used on BDs/HD-DVDs
Duration                                 : 2 h 50 min
Bit rate                                 : 70.2 kb/s
Count of elements                        : 5700
Stream size                              : 85.4 MiB (0%)
Title                                    : German (Commentary #2)
Language                                 : German
Default                                  : No
Forced                                   : No

Text #40
ID                                       : 44
Format                                   : PGS
Codec ID                                 : S_HDMV/PGS
Codec ID/Info                            : Picture based subtitle format used on BDs/HD-DVDs
Duration                                 : 2 h 50 min
Bit rate                                 : 66.7 kb/s
Count of elements                        : 5700
Stream size                              : 81.2 MiB (0%)
Title                                    : Greek (Commentary #2)
Language                                 : Greek
Default                                  : No
Forced                                   : No

Text #41
ID                                       : 45
Format                                   : PGS
Codec ID                                 : S_HDMV/PGS
Codec ID/Info                            : Picture based subtitle format used on BDs/HD-DVDs
Duration                                 : 2 h 50 min
Bit rate                                 : 57.9 kb/s
Count of elements                        : 5698
Stream size                              : 70.4 MiB (0%)
Title                                    : Italian (Commentary #2)
Language                                 : Italian
Default                                  : No
Forced                                   : No

Text #42
ID                                       : 46
Format                                   : PGS
Codec ID                                 : S_HDMV/PGS
Codec ID/Info                            : Picture based subtitle format used on BDs/HD-DVDs
Duration                                 : 2 h 46 min
Bit rate                                 : 38.0 kb/s
Count of elements                        : 4371
Stream size                              : 45.4 MiB (0%)
Title                                    : Japanese (Commentary #2)
Language                                 : Japanese
Default                                  : No
Forced                                   : No

Text #43
ID                                       : 47
Format                                   : PGS
Codec ID                                 : S_HDMV/PGS
Codec ID/Info                            : Picture based subtitle format used on BDs/HD-DVDs
Duration                                 : 2 h 46 min
Bit rate                                 : 41.0 kb/s
Count of elements                        : 5819
Stream size                              : 48.9 MiB (0%)
Title                                    : Korean (Commentary #2)
Language                                 : Korean
Default                                  : No
Forced                                   : No

Text #44
ID                                       : 48
Format                                   : PGS
Codec ID                                 : S_HDMV/PGS
Codec ID/Info                            : Picture based subtitle format used on BDs/HD-DVDs
Duration                                 : 2 h 50 min
Bit rate                                 : 55.6 kb/s
Count of elements                        : 5700
Stream size                              : 67.6 MiB (0%)
Title                                    : Polish (Commentary #2)
Language                                 : Polish
Default                                  : No
Forced                                   : No

Text #45
ID                                       : 49
Format                                   : PGS
Codec ID                                 : S_HDMV/PGS
Codec ID/Info                            : Picture based subtitle format used on BDs/HD-DVDs
Duration                                 : 2 h 50 min
Bit rate                                 : 65.4 kb/s
Count of elements                        : 5699
Stream size                              : 79.5 MiB (0%)
Title                                    : Portuguese (Brazilian) (Commentary #2)
Language                                 : Portuguese
Default                                  : No
Forced                                   : No

Text #46
ID                                       : 50
Format                                   : PGS
Codec ID                                 : S_HDMV/PGS
Codec ID/Info                            : Picture based subtitle format used on BDs/HD-DVDs
Duration                                 : 2 h 50 min
Bit rate                                 : 67.2 kb/s
Count of elements                        : 5700
Stream size                              : 81.7 MiB (0%)
Title                                    : Russian (Commentary #2)
Language                                 : Russian
Default                                  : No
Forced                                   : No

Text #47
ID                                       : 51
Format                                   : PGS
Codec ID                                 : S_HDMV/PGS
Codec ID/Info                            : Picture based subtitle format used on BDs/HD-DVDs
Duration                                 : 2 h 50 min
Bit rate                                 : 63.8 kb/s
Count of elements                        : 5700
Stream size                              : 77.6 MiB (0%)
Title                                    : Spanish (Castilian) (Commentary #2)
Language                                 : Spanish
Default                                  : No
Forced                                   : No

Text #48
ID                                       : 52
Format                                   : PGS
Codec ID                                 : S_HDMV/PGS
Codec ID/Info                            : Picture based subtitle format used on BDs/HD-DVDs
Duration                                 : 2 h 46 min
Bit rate                                 : 64.7 kb/s
Count of elements                        : 5698
Stream size                              : 77.2 MiB (0%)
Title                                    : Spanish (Latin American) (Commentary #2)
Language                                 : Spanish
Default                                  : No
Forced                                   : No

Menu
00:00:00.000                             : en:Far From Home (Main Title)
00:07:13.307                             : en:Hell Unleashed
00:12:50.102                             : en:You Have Missed the War
00:18:44.790                             : en:A Pleasant Fiction
00:23:29.324                             : en:One More Duty
00:32:58.393                             : en:You Will Not Be Emperor
00:37:34.877                             : en:Hail Caesar
00:40:50.739                             : en:A Soldier's Death
00:47:32.724                             : en:Mark of the Legion
00:51:35.842                             : en:Gladiators, I Salute You
00:55:44.382                             : en:Battle in Chains
01:02:21.279                             : en:The Greatness of Rome
01:09:56.984                             : en:Win the Crowd
01:19:08.285                             : en:I Shall Cheer for You
01:29:21.647                             : en:The Battle of Carthage
01:37:11.784                             : en:My Name Is Gladiator
01:41:35.797                             : en:Terribly Vexed
01:51:58.836                             : en:A Man for the People
01:56:36.280                             : en:Maximus the Merciful
02:00:43.485                             : en:You Simply Won't Die
02:04:42.307                             : en:The Last Wish of a Dying Man
02:12:19.055                             : en:I'm an Entertainer
02:13:32.629                             : en:Busy Little Bee
02:24:15.479                             : en:Shadows and Dust
02:28:48.711                             : en:Am I Not Merciful
02:34:20.834                             : en:Death Smiles at Us All
02:38:43.638                             : en:Home Again
02:42:57.809                             : en:Now We Are Free
